# xmcd CD database file
#
# Track frame offsets:
#	150
#	29400
#	55637
#	82467
#
# Disc length: 1360 seconds
#
# Revision: 0
# Processed by: cddbd v1.5PL3 Copyright (c) Steve Scherf et al.
# Submitted via: CDex 1.50beta10
#
DISCID=2f054e04
DTITLE=Rachel Mother Goose - Magic Wand
DYEAR=1900
DGENRE=Hard Rock
TTITLE0=Already
TTITLE1=Stockholm
TTITLE2=With Dream
TTITLE3=Magic Wand
EXTD=
EXTT0=
EXTT1=
EXTT2=
EXTT3=
PLAYORDER=
